<svg width="1341" height="1006" viewBox="0 0 1341 1006" fill="none" xmlns="http://www.w3.org/2000/svg">
<path d="M1209.45 960.902C1208.7 955.786 1209.09 954.991 1211.37 956.882C1214.55 959.526 1215.26 967.308 1212.29 967.308C1211.26 967.308 1209.97 964.427 1209.45 960.902ZM1299.71 960.902C1298.96 955.786 1299.35 954.991 1301.63 956.882C1304.81 959.526 1305.52 967.308 1302.55 967.308C1301.52 967.308 1300.23 964.427 1299.71 960.902Z" fill="black"/>
<path d="M128.297 444.833C127.545 442.017 128.039 440.727 129.651 441.264C132.746 442.275 134.357 449.261 131.499 449.261C130.36 449.261 128.92 447.262 128.297 444.833Z" fill="#848382"/>
<path d="M132.228 530.708C132.185 530.837 132.163 530.966 132.12 531.095C130.401 538.984 126.898 541.241 123.545 536.641C120.365 532.299 118.452 532.17 115.1 536.34C115.68 534.792 116.153 532.643 116.497 529.87L117.27 523.421L120.924 531.675C125.071 541.026 128.789 541.112 131.819 531.89C131.948 531.482 132.077 531.095 132.228 530.708ZM111.683 539.414C111.081 539.306 110.501 538.618 109.663 537.393C108.739 535.996 107.922 531.589 107.621 526.71C108.094 533.975 109.835 538.511 111.683 539.414ZM143.725 533.954C143.703 529.848 143.145 527.14 141.984 525.742C141.597 525.291 141.232 524.926 140.845 524.603C141.06 524.754 141.275 524.926 141.49 525.098C143.145 526.473 143.811 528.902 143.725 533.954ZM147.206 585.157C146.54 580.75 145.057 572.023 143.961 565.746C143.016 560.48 142.65 551.967 142.994 545.218C142.693 552.225 143.08 560.78 143.983 565.896C145.079 572.087 146.54 580.75 147.206 585.157Z" fill="#979478"/>
<path d="M997.195 252.962C997.174 253.091 997.152 253.22 997.152 253.348C997.152 256.53 1011.14 258.25 1017.5 255.82C1022.38 253.972 1024.34 254.402 1029.41 258.464C1032.74 261.13 1041.94 268.03 1049.85 273.791C1065.06 284.883 1067.92 289.418 1072.41 309.796C1074.9 321.125 1074.78 322.242 1070.26 328.369L1065.45 334.882L1071.06 348.919C1074.15 356.614 1076.67 366.459 1076.67 370.758C1076.67 375.057 1077.74 382.86 1079.05 388.084C1080.38 393.307 1080.84 400.917 1080.06 404.979C1078.79 411.815 1077.42 412.89 1062.1 419.274C1052.96 423.079 1040.18 429.205 1033.69 432.881C1022.15 439.415 1021.11 439.587 989.63 440.34C960.382 441.028 957.051 440.727 953.827 437.115C951.077 434.02 919.787 348.875 919.787 344.469C919.787 341.631 908.762 346.661 900.316 353.11C905.238 349.284 910.761 345.823 913.361 345.006C921.42 342.448 928.383 337.354 928.383 334C928.383 332.367 930.253 331.034 932.552 331.034C937.581 331.034 979.96 279.315 979.96 273.189C979.96 268.095 985.977 265.666 990.082 269.083C992.209 270.846 992.811 273.791 991.908 278.219C990.683 284.367 990.834 284.539 994.251 281.121C997.668 277.703 997.646 276.929 993.843 268.524L989.824 259.582L996.701 253.413C996.873 253.263 997.045 253.112 997.195 252.962ZM1214.61 256.981C1214.08 255.025 1212.51 253.649 1209.93 253.649C1207.84 253.649 1204.92 252.188 1203.46 250.425C1200.13 246.427 1194.03 246.255 1190.84 250.081C1188.98 252.338 1189.71 253.542 1194.07 255.541C1199.51 258.013 1199.57 258.228 1195.85 262.334C1193.75 264.677 1190.95 268.739 1189.62 271.405C1187.51 275.661 1185.34 276.284 1170.92 276.843L1154.61 277.467L1153.32 269.427C1152.42 263.838 1152.98 260.292 1155.17 257.884C1158.8 253.864 1159.34 249.35 1156.18 249.35C1153.52 249.35 1153.43 242.88 1156.05 238.731C1157.62 236.281 1158.63 236.195 1161.19 238.301C1167.55 243.589 1178.17 245.223 1183.47 241.741C1189.56 237.764 1189.92 230.907 1184.12 229.381C1179.05 228.048 1178.51 223.018 1183.04 219.256C1187.23 215.774 1187.17 207.649 1182.96 204.123C1180.44 202.06 1179.03 201.995 1177.16 203.865C1174.08 206.939 1154.78 207.176 1152.91 204.145C1152.18 202.941 1151.02 196.664 1150.36 190.173C1149.22 179.274 1149.45 178.414 1153.67 178.414C1156.14 178.414 1161.49 175.512 1165.53 171.966C1169.57 168.419 1175.16 165.495 1177.95 165.495C1180.74 165.474 1185.21 164.872 1187.88 164.163C1191.34 163.238 1192.26 162.465 1191.92 157.134C1192.93 160.723 1194.52 163.367 1196.5 163.367C1198.28 163.367 1201.93 165.753 1204.64 168.655C1208.94 173.277 1210.4 173.664 1216.7 171.837C1222.22 170.225 1225.72 170.547 1231.87 173.298C1242.44 178.006 1244.89 185.787 1245.58 217.107C1245.77 225.49 1246.01 234.948 1246.23 242.493C1245.82 239.785 1245.32 236.56 1244.85 233.529L1243.22 223.061L1239.07 227.683C1236.77 230.219 1231.7 234.282 1227.79 236.689C1221.23 240.752 1218.87 246.599 1221.96 248.619C1217 248.533 1213.73 252.102 1214.61 256.981ZM1220.91 275.446C1223.73 273.254 1229.16 269.836 1233.01 267.88C1241.15 263.688 1241.97 258.851 1235.12 255.992C1239.71 257.196 1244.81 254.832 1246.48 251.22C1246.51 252.145 1246.53 252.962 1246.57 253.649C1246.78 260.163 1246.14 277.316 1245.09 291.804C1243.73 310.764 1243.93 320.953 1245.77 328.218C1248.76 339.869 1248.1 341.782 1241.07 341.782C1240.87 341.782 1240.68 341.782 1240.49 341.782C1240.62 341.782 1240.75 341.782 1240.87 341.782C1240.94 341.782 1241 341.782 1241.07 341.782C1248.07 341.739 1248.72 339.869 1245.77 328.218C1245.75 328.068 1245.71 327.917 1245.67 327.788C1243.32 318.545 1242.12 317.062 1235.89 315.428C1226.82 313.085 1225.83 314.224 1228.78 323.768C1230.69 330.002 1230.49 333.227 1227.81 339.89C1224 349.434 1221.83 350.23 1218.33 343.394C1214.91 336.73 1200.99 322.436 1197.92 322.436C1194.07 322.436 1192.59 310.785 1194.91 298.575C1196.05 292.535 1196.41 285.291 1195.7 282.454C1194.58 278.004 1195.16 277.295 1200 277.295C1203.57 277.295 1205.61 276.112 1205.61 274.049C1205.61 273.275 1206.04 272.2 1206.77 271.018C1205.01 274.156 1205.44 276.865 1208.3 278.026C1213.19 280.003 1215.73 279.487 1220.91 275.446ZM1173.05 404.7C1174.56 404.528 1175.52 402.937 1175.52 399.584C1175.52 397.241 1177.01 392.447 1178.81 388.965C1181.35 384.064 1183.56 382.624 1188.59 382.624C1193.83 382.624 1199.14 381.764 1203.93 380.345C1199.72 382.301 1196.5 385.934 1191.98 393.436C1185.9 403.561 1183.97 405.216 1178.14 405.409C1176.32 405.474 1174.62 405.237 1173.05 404.7ZM1218.98 372.607C1221.86 369.855 1222.82 366.953 1220.78 364.503C1217.13 360.096 1219.88 356.592 1226.48 357.302C1230.88 357.796 1232.13 356.85 1232.77 352.53C1233.01 350.961 1233.25 349.606 1233.5 348.446C1233.22 349.821 1232.94 351.455 1232.64 353.433C1231.66 359.709 1226.05 367.125 1218.98 372.607ZM1004.67 241.827C1003.96 242.536 1003.6 243.546 1003.6 244.815C1003.6 247.05 1002.16 249.458 1000.38 250.124C1000.14 250.21 999.903 250.318 999.688 250.447C1001.99 247.846 1003.6 245.288 1003.6 243.998C1003.6 243.181 1004.01 242.407 1004.67 241.827ZM1190.78 145.139C1190.61 140.711 1191.38 139.271 1193.49 138.454C1196.37 137.358 1197.44 133.381 1196.67 129.727C1196.88 130.586 1197.01 131.446 1197.01 132.242C1197.01 134.907 1195.57 137.68 1193.79 138.346C1192.05 139.013 1191.08 141.743 1190.78 145.139ZM1210.75 266.353C1213.84 263.666 1215.13 260.206 1214.74 257.583C1214.74 257.648 1214.76 257.691 1214.79 257.755C1215.47 260.399 1214.01 263.516 1210.75 266.353ZM1226.13 249.436C1227.92 249.694 1229.25 250.554 1229.25 251.564C1229.25 252.102 1229.66 252.768 1230.37 253.413C1229.66 252.811 1229.25 252.252 1229.25 251.801C1229.25 251.027 1227.96 250.103 1226.13 249.436ZM1160.48 389.073C1161.94 392.942 1163.72 396.274 1165.55 398.853C1163.68 396.338 1162 393.092 1160.48 389.073Z" fill="#95A8D7"/>
<path d="M635.942 915.847C469.779 893.706 332.691 874.876 331.295 874.016C327.491 871.673 101.347 580.471 96.9849 572.302C93.8043 566.369 93.7828 528.279 96.9419 525.119C99.0909 522.97 98.876 510.932 96.5336 503.258C96.0393 501.646 96.7914 499.883 98.1883 499.367C102.379 497.82 107.451 510.566 107.494 522.776C107.494 529.053 108.482 535.631 109.664 537.393C111.555 540.209 112.2 540.145 114.714 536.856C118.303 532.17 120.237 532.127 123.547 536.641C126.899 541.241 130.402 538.984 132.122 531.095C133.733 523.765 138.289 521.293 141.986 525.742C143.748 527.871 144.156 533.008 143.254 541.606C142.523 548.614 142.845 559.469 143.963 565.746C145.059 572.023 146.542 580.75 147.208 585.157C148.841 595.668 153.268 599.731 163.068 599.731C167.495 599.731 172.975 601.149 175.274 602.891C180.432 606.803 182.839 606.996 182.13 603.493C181.442 600.01 203.362 600.698 207.703 604.288C211.786 607.684 249.781 604.997 257.991 600.741C261.365 599 266.909 597.581 270.348 597.581C273.786 597.581 278.256 595.711 280.384 593.368C282.468 591.047 287.691 588.016 291.989 586.64C296.287 585.286 302.368 581.61 305.528 578.514C313.264 570.884 322.698 563.919 329.446 560.845C333.422 559.039 335.206 556.374 335.679 551.602C336.646 541.585 343.78 541.542 351.968 551.473L358.437 559.34L393.509 560.136C422.607 560.78 429.463 560.351 433.696 557.578C438.467 554.461 439.155 554.547 443.883 558.975C447.837 562.715 451.727 563.811 461.677 564.005C474.055 564.263 474.377 564.112 472.594 559.426C470.939 555.106 471.412 554.59 476.978 554.59C481.598 554.59 485.144 556.847 490.775 563.446L498.361 572.302L511.9 571.077C519.335 570.389 530.317 569.207 536.27 568.433C544.801 567.315 547.703 567.767 549.959 570.475C551.528 572.388 555.547 573.936 558.856 573.936C562.166 573.936 567.732 576.343 571.235 579.288C576.822 583.996 578.971 584.49 589.115 583.416C595.454 582.749 609.831 582.319 621.071 582.47C639.682 582.685 642.69 582.147 655.112 576.171C662.612 572.582 670.069 569.637 671.724 569.637C680.384 569.637 708.795 557.879 715.628 551.473C719.755 547.582 726.288 543.369 730.113 542.101C733.938 540.832 741.481 536.748 746.876 533.051C755.278 527.247 757.535 526.602 762.757 528.429C768.258 530.343 769.634 529.762 776.403 522.69C785.085 513.64 792.972 498.959 793.037 491.801C793.08 484.987 796.239 480.644 800.086 482.128C804.491 483.804 806.382 481.461 803.46 477.936C801.504 475.593 802.321 475.314 807.779 476.41C811.776 477.205 814.484 476.861 814.484 475.55C814.484 473.013 809.413 470.756 803.696 470.756C799.463 470.756 780.272 459.944 780.164 457.472C780.121 456.677 782.958 454.592 786.461 452.85C792.693 449.734 792.908 449.82 797.163 457.042C802.364 465.877 805.458 467.339 812.958 464.48C819.857 461.857 830.559 442.554 827.035 439.029C825.487 437.481 826.003 435.46 828.775 432.43C837.586 422.756 838.489 421.123 836.426 418.522C835.308 417.103 833.783 412.546 833.03 408.419C831.827 401.648 832.45 400.272 839.37 394.769C844.592 390.599 848.697 388.944 852.243 389.632C857.852 390.706 862.752 386.622 861.247 382.151C860.689 380.539 866.126 375.96 874.464 371.038C882.265 366.438 893.096 359 898.555 354.486C907.129 347.414 919.787 341.438 919.787 344.469C919.787 348.876 951.077 434.02 953.828 437.116C957.051 440.727 960.382 441.028 989.631 440.34C1021.11 439.588 1022.15 439.416 1033.69 432.881C1040.18 429.205 1052.96 423.079 1062.1 419.274C1076.82 413.148 1078.67 411.901 1079.91 405.753C1080.36 410.418 1081.72 411.256 1086.32 412.589C1089.88 413.642 1096.22 414.567 1100.44 414.674L1108.11 414.868L1107.48 391.566C1107.16 380.13 1107.1 374.176 1107.81 370.135C1107.14 374.09 1107.25 379.915 1107.61 391.029C1108.04 403.561 1109.57 416.953 1111.03 420.822C1113.05 426.26 1113.07 428.56 1111.09 430.946C1102.52 441.264 1100.33 449.906 1101.7 467.897C1102.73 481.289 1104.07 486.599 1107.08 489.307C1112.92 494.617 1112.02 505.515 1104.45 520.476C1100.84 527.656 1098.35 534.835 1098.95 536.383C1100.56 540.553 1117.97 542.574 1126.91 539.629C1136.71 536.383 1142.43 539.328 1144.45 548.657C1145.29 552.505 1148.38 560.437 1151.3 566.262C1156.4 576.365 1156.46 577.01 1152.79 579.697C1150.66 581.266 1147.67 582.534 1146.15 582.534C1144.64 582.534 1135.96 585.479 1126.87 589.09C1113.87 594.271 1109.18 595.238 1104.8 593.647C1101.72 592.53 1092.08 591.519 1083.33 591.39C1069.3 591.175 1065.58 592.035 1051.8 598.656C1043.21 602.805 1034.22 606.179 1031.84 606.179C1023.31 606.179 1024.25 611.123 1034.44 620.001C1044.13 628.428 1044.56 629.287 1045.85 643.26C1047.16 657.318 1046.97 658.092 1039.36 669.57C1034.07 677.524 1030.33 686.745 1027.91 697.859C1025.03 710.928 1022.6 716.281 1016.15 723.718C1007.9 733.284 1006.91 735.82 999.495 766.753C996.551 779.027 991.672 790.591 983.399 804.95C965.261 836.356 963.327 844.804 963.37 892.266L963.413 932.248L954.236 944.393C949.186 951.078 943.491 956.474 941.557 956.345C939.623 956.237 802.106 938.009 635.942 915.847ZM608.478 559.878C604.48 558.158 598.979 556.739 596.228 556.739C589.63 556.739 587.03 552.268 591.951 549.345C594.079 548.098 599.129 544.895 603.169 542.23C607.21 539.564 613.313 537.393 616.751 537.393C620.168 537.393 626.293 535.437 630.333 533.051L637.704 528.709L644.388 534.943C648.084 538.382 654.402 541.821 658.443 542.574C665.062 543.82 668.35 547.131 668.35 552.569C668.35 553.622 665.943 556.073 662.977 558.008C656.551 562.221 642.561 560.544 642.561 555.557C642.561 553.837 641.121 552.44 639.338 552.44C637.554 552.44 636.114 553.859 636.114 555.579C636.114 562.995 621.028 565.338 608.478 559.878ZM1019.16 231.165C1021.07 229.295 1022.98 228.242 1024.02 228.629C1025.63 229.252 1029.07 225.383 1032.5 219.084C1034.61 215.194 1036.18 211.776 1036.74 209.949C1036.72 210.185 1036.72 210.4 1036.74 210.594C1036.91 213.668 1050.47 219.987 1062.16 222.416C1068.93 223.813 1069.83 228.672 1064.72 235.98C1062.07 239.763 1059.28 240.752 1051.29 240.731C1038.67 240.731 1024.9 236.99 1021.8 232.777C1020.77 231.38 1020.04 230.778 1019.16 231.165ZM489.442 525.076C479.858 524.087 478.59 520.197 487.83 520.197C491.398 520.197 497.909 518.262 502.315 515.897C511.427 511.018 518.024 510.416 521.785 514.178C523.784 516.177 524.364 515.403 524.364 510.609C524.364 507.235 526.814 501.28 529.801 497.347C535.217 490.253 535.26 490.253 539.472 494.466C547.939 502.935 543.856 510.115 526.062 517.983C520.582 520.412 515.746 523.485 515.295 524.84C514.715 526.602 513.146 526.538 509.514 524.603C505.925 522.69 503.905 522.604 502.208 524.302C500.918 525.592 499.328 526.473 498.683 526.28C498.038 526.086 493.869 525.549 489.442 525.076ZM334.303 524.023C329.575 517.273 330.134 510.953 335.915 505.515C344.941 497.067 352.441 500.206 352.441 512.437C352.441 516.714 342.534 528.795 339.01 528.795C338.257 528.795 336.13 526.645 334.303 524.023ZM773.459 483.869C755.622 478.172 755.192 477.678 762.069 470.52C768.624 463.663 771.503 462.717 771.503 467.382C771.503 469.08 775.565 473.207 780.508 476.517C788.932 482.171 791.404 486.147 787.256 487.244C786.267 487.502 780.057 485.975 773.459 483.869ZM725.364 518.133C720.27 512.802 719.712 511.211 722.011 508.46C726.546 503 733.508 504.505 737.699 511.878C740.622 516.994 740.944 519.251 739.053 521.529C735.357 525.979 732.112 525.162 725.364 518.133ZM711.33 529.332C705.743 526.538 703.809 524.195 703.809 520.197C703.809 511.942 711.61 511.985 718.573 520.24C728.587 532.17 725.299 536.297 711.33 529.332ZM267.597 468.65C264.438 465.168 264.223 463.792 266.437 461.126C272.131 454.269 278.6 458.547 276.322 467.661C274.71 474.024 272.669 474.26 267.597 468.65ZM747.8 509.32C745.78 505.558 745.951 503.989 748.724 501.237C753.022 496.917 757.148 500.356 756.095 507.428C755.128 514.07 750.873 515.059 747.8 509.32ZM1153.5 270.567L1152.31 264.827C1150.06 253.907 1150.19 251.221 1153.28 244.858C1153.75 243.869 1154.18 242.988 1154.57 242.192C1153.65 245.739 1154.18 249.35 1156.18 249.35C1159.34 249.35 1158.8 253.865 1155.17 257.884C1152.98 260.292 1152.42 263.839 1153.32 269.427L1153.5 270.567ZM727.814 278.004C725.192 275.403 726.331 270.846 729.597 270.846C731.381 270.846 732.821 272.759 732.821 275.145C732.821 279.423 730.521 280.734 727.814 278.004ZM1079.01 387.869C1077.72 382.624 1076.67 374.993 1076.67 370.758C1076.67 370.694 1076.67 370.629 1076.67 370.565C1077.68 376.175 1078.47 382.087 1079.01 387.869ZM1036.95 208.659C1036.93 208.552 1036.89 208.509 1036.8 208.509C1035.99 208.509 1036.91 206.123 1038.8 203.221C1040.71 200.297 1042.28 196.535 1042.28 194.859C1042.28 196.535 1040.99 200.061 1039.42 202.683C1038.31 204.532 1037.38 206.853 1036.95 208.659ZM1176.73 55.6309C1174.75 58.9628 1171.87 66.2283 1169.44 73.5369C1169.72 72.6555 1170 71.7742 1170.3 70.8929C1173.27 61.9077 1174.71 57.759 1176.73 55.6309ZM1192.91 51.8477C1191.81 51.9122 1190.44 52.1056 1188.72 52.4066C1185.8 52.8795 1182.74 53.3094 1180.66 53.5458C1181.54 53.3094 1182.55 53.1374 1183.73 52.944C1188.03 52.2346 1190.89 51.8047 1192.91 51.8477ZM1004.65 241.848C1005.36 241.139 1006.41 240.752 1007.75 240.752C1009.7 240.752 1012.88 238.581 1015.38 235.701C1013.31 238.517 1010.05 240.752 1007.85 240.752C1006.46 240.752 1005.38 241.118 1004.65 241.848ZM1072.26 352.121C1071.87 351.025 1071.47 349.95 1071.06 348.919L1068.72 343.029L1070.2 346.49C1070.91 348.145 1071.6 350.036 1072.26 352.121ZM1199.89 79.3407C1200.37 70.6349 1200.13 62.4236 1198.82 58.3394C1198.71 57.974 1198.6 57.63 1198.5 57.3076C1198.62 57.716 1198.75 58.1244 1198.9 58.5758C1200.17 62.5525 1200.39 70.6779 1199.89 79.3407ZM1157.62 236.99C1157.88 236.754 1158.14 236.646 1158.39 236.625C1159.13 236.56 1159.9 237.227 1161.19 238.302C1159.56 236.947 1158.55 236.496 1157.62 236.99ZM1186.85 274.694C1184.48 276.091 1180.34 276.478 1171.07 276.843L1154.93 277.467V277.445L1170.92 276.843C1180.29 276.478 1184.48 276.091 1186.85 274.694Z" fill="#B9CD6B"/>
<path d="M1098.2 157.521C1095.24 160.681 1097.15 163.088 1103.53 165.517C1108.84 167.538 1114.06 180.306 1116.68 197.761C1117.59 203.823 1120.47 210.099 1124.36 214.592C1128.67 219.579 1130.16 223.083 1129.19 226.092C1128.24 229.123 1129.62 232.261 1133.81 236.646C1137.1 240.086 1138.67 242.902 1137.29 242.902C1135.66 242.902 1135.25 245.137 1136.09 249.35C1137.25 255.176 1136.65 256.1 1129.66 259.024C1125.41 260.786 1120.12 262.248 1117.91 262.248C1112.51 262.248 1107.01 255.842 1104.45 246.599C1102.16 238.216 1089 226.286 1076.67 221.385C1072.54 219.729 1062.91 214.14 1055.28 208.938C1044.63 201.694 1041.87 200.211 1039.83 201.931C1041.21 199.437 1042.28 196.385 1042.28 194.859C1042.28 193.161 1044.2 189.506 1046.52 186.712C1051.09 181.209 1052.23 182.606 1048.64 189.334C1045.79 194.687 1050.06 196.643 1060.36 194.708C1066.29 193.591 1068.27 191.806 1070.95 185.078C1072.78 180.521 1077.31 174.502 1081.05 171.686C1084.77 168.892 1090.72 163.926 1094.25 160.659C1095.26 159.735 1096.63 158.66 1098.2 157.521ZM1227.32 350.552C1230.45 352.551 1232.04 352.938 1232.97 351.326C1232.9 351.713 1232.84 352.122 1232.77 352.53C1232.13 356.851 1230.88 357.796 1226.48 357.302C1223.49 356.98 1221.3 357.538 1220.12 358.635C1220.35 358.14 1220.65 357.624 1221.02 357.044C1223.19 353.562 1223.17 351.756 1220.4 346.683C1222.8 349.499 1224.76 347.478 1227.75 340.105C1224.82 347.371 1224.76 348.94 1227.32 350.552ZM1246.51 331.163C1248.4 339.525 1247.58 341.481 1242.4 341.739C1247.47 340.729 1248.2 338.751 1246.51 331.163ZM1217.86 342.534C1214.59 337.719 1209.78 332.13 1205.63 328.068C1210.25 332.496 1215.52 338.536 1217.86 342.534ZM1036.74 209.927C1036.76 210.035 1036.76 210.142 1036.78 210.25C1037.08 212.27 1041.34 215.129 1047.2 217.666C1041.25 215.129 1036.82 212.335 1036.74 210.594C1036.72 210.4 1036.72 210.164 1036.74 209.927ZM1135.77 129.856C1130.44 135.875 1125.73 140.41 1121.09 143.892C1125.73 140.367 1130.57 135.724 1135.77 129.856Z" fill="#E79BBC"/>
<path d="M1154.07 243.203C1156.22 237.764 1155.34 234.303 1151.65 234.303C1150.46 234.303 1148.51 237.205 1147.26 240.731C1145.43 245.997 1144.12 246.964 1140.13 245.954C1135.81 244.858 1135.36 245.374 1136.28 250.253C1136.52 251.521 1136.62 252.532 1136.54 253.392C1136.62 252.338 1136.43 251.049 1136.09 249.35C1135.25 245.137 1135.66 242.902 1137.29 242.902C1138.67 242.902 1137.1 240.086 1133.81 236.646C1129.62 232.261 1128.24 229.123 1129.19 226.092C1130.15 223.083 1128.67 219.579 1124.35 214.592C1120.46 210.099 1117.58 203.822 1116.68 197.761C1114.06 180.306 1108.84 167.538 1103.53 165.517C1092.8 161.433 1094.74 157.413 1111.05 149.89C1119.39 146.042 1126.65 140.152 1135.76 129.856C1142.86 121.816 1152.29 111.219 1156.72 106.296C1161.14 101.352 1164.78 95.1185 1164.78 92.4316C1164.78 84.7146 1175.71 53.7393 1178.44 53.7178C1179.8 53.6963 1184.42 53.1159 1188.72 52.4065C1196.11 51.1813 1196.65 51.5037 1198.82 58.3394C1202.02 68.3779 1198.86 103.029 1194.15 109.779C1189.7 116.12 1189.58 121.193 1193.79 124.675C1198.09 128.243 1197.89 136.777 1193.49 138.454C1190.61 139.572 1190.22 141.829 1191.34 151.351C1192.58 162.035 1192.35 162.959 1187.88 164.163C1185.21 164.872 1180.74 165.474 1177.95 165.496C1175.16 165.496 1169.57 168.419 1165.53 171.966C1161.49 175.513 1156.14 178.414 1153.67 178.414C1149.45 178.414 1149.22 179.274 1150.36 190.173C1151.02 196.664 1152.18 202.941 1152.91 204.145C1154.78 207.176 1174.08 206.939 1177.15 203.865C1179.02 201.995 1180.44 202.06 1182.96 204.123C1187.17 207.649 1187.23 215.774 1183.04 219.256C1178.51 223.018 1179.05 228.048 1184.12 229.381C1189.92 230.907 1189.55 237.764 1183.47 241.741C1178.19 245.202 1167.57 243.59 1161.29 238.388C1159.94 237.27 1159.12 236.539 1158.39 236.625C1157.3 236.711 1156.37 238.517 1154.07 243.203ZM1204.81 359.645C1218.8 363.385 1226.02 356.657 1219.83 345.694C1223.14 351.541 1223.34 353.325 1221.02 357.044C1218.87 360.505 1218.82 362.138 1220.84 364.589C1226.71 371.661 1207.11 382.624 1188.59 382.624C1183.58 382.624 1181.37 384.043 1178.85 388.858C1178.87 388.815 1178.9 388.793 1178.92 388.75C1182.12 382.538 1182.05 381.915 1177.63 377.207C1175.46 374.907 1169.63 371.769 1163.66 369.318C1163.77 369.275 1163.83 369.232 1163.87 369.189C1166 367.082 1157.81 345.952 1154.1 343.975C1147.35 340.363 1138.06 341.503 1129.25 346.167C1134.02 343.459 1138.73 341.782 1142.4 341.782C1146.29 341.782 1150.08 340.815 1150.81 339.632C1151.54 338.45 1151.22 337.483 1150.1 337.483C1144.94 337.483 1142.62 312.763 1147.11 305.777C1148.83 303.111 1149.39 300.919 1148.36 300.897C1147.35 300.897 1147.95 299.951 1149.73 298.834C1152.48 297.092 1152.33 296.34 1148.66 293.567C1146.29 291.783 1145.33 290.278 1146.51 290.235C1147.69 290.171 1147.28 289.268 1145.63 288.215C1143.2 286.667 1143.8 285.248 1148.72 281.014C1152.98 277.359 1154.27 276.177 1153.75 271.835L1154.93 277.467L1171.07 276.843C1185.34 276.285 1187.51 275.661 1189.62 271.405C1190.95 268.74 1193.75 264.677 1195.85 262.334C1199.57 258.228 1199.5 258.013 1194.07 255.541C1189.7 253.542 1188.97 252.338 1190.84 250.081C1194.02 246.255 1200.13 246.427 1203.46 250.425C1204.92 252.188 1207.84 253.65 1209.93 253.65C1216.03 253.65 1216.52 261.324 1210.74 266.354C1207.91 268.804 1205.61 272.265 1205.61 274.049C1205.61 276.113 1203.57 277.295 1200 277.295C1195.16 277.295 1194.58 278.004 1195.7 282.454C1196.41 285.291 1196.04 292.535 1194.91 298.576C1192.58 310.785 1194.07 322.436 1197.91 322.436C1199.44 322.436 1203.14 325.467 1207.15 329.594C1200.73 323.339 1194.86 320.028 1194.86 324.199C1194.86 325.166 1196.69 329.701 1198.9 334.28C1201.59 339.783 1202.58 345.264 1201.87 350.574C1200.99 357.087 1201.55 358.764 1204.81 359.645ZM1149.73 365.427C1151.22 364.997 1153.58 365.384 1156.72 366.782C1153.94 365.943 1151.52 365.427 1149.86 365.427C1149.82 365.427 1149.78 365.427 1149.73 365.427ZM1167.59 401.368C1168.06 401.906 1168.54 402.378 1168.99 402.808C1166.13 400.293 1162.88 395.414 1160.48 389.073C1162.05 393.221 1165.25 398.746 1167.59 401.368ZM1151.43 260.27C1150.38 254.724 1150.42 251.865 1151.73 248.426C1150.53 251.844 1150.48 254.746 1151.43 260.27Z" fill="#F5A659"/>
<path d="M1086.32 412.589C1080.32 410.848 1079.85 409.966 1079.7 400.422C1079.44 382.108 1075.23 358.183 1070.2 346.49L1065.3 335.097L1070.18 328.476C1074.8 322.242 1074.93 321.168 1072.41 309.796C1067.92 289.418 1065.06 284.883 1049.85 273.791C1041.94 268.03 1032.74 261.13 1029.41 258.465C1024.34 254.402 1022.38 253.972 1017.5 255.821C1011.14 258.25 997.152 256.53 997.152 253.349C997.152 252.252 998.592 250.812 1000.38 250.124C1002.16 249.458 1003.6 247.05 1003.6 244.815C1003.6 242.192 1005.1 240.752 1007.85 240.752C1010.18 240.752 1013.74 238.237 1015.76 235.142C1018.9 230.37 1019.78 230.026 1021.8 232.777C1024.9 236.99 1038.67 240.731 1051.29 240.731C1059.28 240.752 1062.07 239.763 1064.72 235.98C1069.83 228.672 1068.93 223.814 1062.16 222.416C1050.02 219.901 1037.3 213.796 1036.78 210.25C1036.48 208.251 1037.43 205.005 1038.84 203.07C1041.16 199.867 1042.84 200.469 1055.28 208.938C1062.91 214.14 1072.54 219.729 1076.67 221.384C1089 226.286 1102.15 238.216 1104.45 246.599C1107.01 255.842 1112.51 262.248 1117.91 262.248C1120.12 262.248 1125.41 260.808 1129.64 259.023C1136.22 256.272 1137.18 255.004 1136.28 250.253C1135.36 245.374 1135.81 244.858 1140.13 245.954C1144.13 246.964 1145.44 245.997 1147.26 240.731C1148.51 237.205 1150.46 234.303 1151.65 234.303C1155.86 234.303 1156.42 238.775 1153.04 245.524C1150.12 251.393 1150.01 254.079 1152.23 264.053C1154.83 275.618 1154.78 275.79 1148.72 281.014C1143.8 285.248 1143.2 286.667 1145.63 288.215C1147.28 289.268 1147.69 290.171 1146.51 290.235C1145.33 290.278 1146.3 291.783 1148.66 293.567C1152.33 296.34 1152.48 297.092 1149.73 298.834C1147.95 299.951 1147.35 300.897 1148.36 300.897C1149.39 300.919 1148.83 303.111 1147.11 305.777C1142.62 312.763 1144.94 337.483 1150.1 337.483C1151.22 337.483 1151.54 338.45 1150.81 339.632C1150.08 340.815 1146.3 341.782 1142.41 341.782C1133.9 341.782 1119.78 350.767 1112.23 360.978C1107.16 367.856 1106.88 369.598 1107.48 391.566L1108.11 414.868L1100.44 414.674C1096.22 414.567 1089.88 413.642 1086.32 412.589ZM1167.59 401.368C1165.25 398.746 1162.05 393.221 1160.48 389.073C1158.93 384.924 1155.39 379.077 1152.61 376.068C1147.31 370.264 1146.06 365.427 1149.86 365.427C1156.1 365.427 1173.5 372.822 1177.63 377.207C1182.06 381.915 1182.12 382.538 1178.92 388.75C1177.05 392.361 1175.52 397.241 1175.52 399.584C1175.52 406.011 1172.36 406.721 1167.59 401.368ZM1204.81 359.645C1201.55 358.764 1200.99 357.087 1201.87 350.574C1202.58 345.264 1201.59 339.783 1198.9 334.28C1196.69 329.701 1194.86 325.166 1194.86 324.199C1194.86 317.105 1211.84 331.701 1219.77 345.587C1226.07 356.614 1218.85 363.407 1204.81 359.645ZM1227.31 350.552C1224.76 348.94 1224.82 347.371 1227.74 340.105C1230.49 333.227 1230.69 330.024 1228.78 323.769C1225.83 314.225 1226.82 313.085 1235.89 315.428C1242.14 317.062 1243.32 318.545 1245.71 327.896C1248.65 339.503 1248.03 341.051 1239.99 342.147C1236.34 342.62 1234.41 344.405 1233.93 347.693C1233.18 352.938 1231.93 353.476 1227.31 350.552ZM1234.08 255.67C1231.42 254.638 1229.25 252.79 1229.25 251.564C1229.25 250.339 1227.31 249.35 1224.95 249.35C1218.03 249.35 1219.73 241.676 1227.79 236.689C1231.7 234.282 1236.77 230.219 1239.07 227.683L1243.22 223.061L1244.85 233.53C1245.75 239.269 1246.72 245.761 1247 247.975C1247.73 253.542 1240.19 258.035 1234.08 255.67Z" fill="#F9D165"/>
<path d="M617.574 132V84.19H636.264C640.091 84.19 643.287 84.68 645.854 85.66C648.467 86.64 650.404 88.2733 651.664 90.56C652.971 92.8467 653.624 95.95 653.624 99.87C653.624 103.323 652.994 106.24 651.734 108.62C650.521 110.953 648.654 112.68 646.134 113.8L653.624 132H643.474L637.174 115.97H627.234V132H617.574ZM627.234 108.06H636.474C638.247 108.06 639.671 107.733 640.744 107.08C641.817 106.38 642.587 105.423 643.054 104.21C643.521 102.95 643.754 101.527 643.754 99.94C643.754 97.3267 643.147 95.3667 641.934 94.06C640.721 92.7533 638.831 92.1 636.264 92.1H627.234V108.06ZM669.319 132.77C665.679 132.77 662.925 131.86 661.059 130.04C659.239 128.173 658.329 125.373 658.329 121.64C658.329 119.027 658.795 116.997 659.729 115.55C660.662 114.057 662.039 112.983 663.859 112.33C665.725 111.63 667.989 111.21 670.649 111.07L679.189 110.3V108.2C679.189 106.52 678.769 105.353 677.929 104.7C677.089 104 675.852 103.65 674.219 103.65C672.912 103.65 671.395 103.697 669.669 103.79C667.989 103.883 666.309 104 664.629 104.14C662.995 104.28 661.572 104.42 660.359 104.56L660.079 97.98C661.292 97.7 662.739 97.42 664.419 97.14C666.145 96.8133 667.942 96.5567 669.809 96.37C671.675 96.1833 673.402 96.09 674.989 96.09C677.975 96.09 680.472 96.4633 682.479 97.21C684.485 97.9567 686.002 99.1933 687.029 100.92C688.055 102.6 688.569 104.887 688.569 107.78V123.81C688.662 124.463 689.012 124.977 689.619 125.35C690.225 125.677 690.925 125.91 691.719 126.05L691.509 132.49C690.762 132.49 690.015 132.49 689.269 132.49C688.569 132.537 687.892 132.537 687.239 132.49C686.585 132.49 686.002 132.443 685.489 132.35C684.415 132.21 683.482 131.93 682.689 131.51C681.942 131.09 681.335 130.647 680.869 130.18C680.122 130.507 679.119 130.88 677.859 131.3C676.599 131.72 675.222 132.07 673.729 132.35C672.282 132.63 670.812 132.77 669.319 132.77ZM671.559 125.84C672.445 125.84 673.379 125.747 674.359 125.56C675.339 125.373 676.249 125.163 677.089 124.93C677.975 124.65 678.675 124.393 679.189 124.16V116.11L672.049 116.74C670.509 116.88 669.389 117.347 668.689 118.14C668.035 118.887 667.709 119.96 667.709 121.36C667.709 122.76 668.012 123.857 668.619 124.65C669.272 125.443 670.252 125.84 671.559 125.84ZM709.459 132.77C707.919 132.77 706.263 132.677 704.489 132.49C702.763 132.35 701.129 132.163 699.589 131.93C698.096 131.697 696.813 131.463 695.739 131.23L696.019 124.3C697.233 124.44 698.586 124.603 700.079 124.79C701.619 124.977 703.113 125.14 704.559 125.28C706.053 125.373 707.266 125.42 708.199 125.42C709.599 125.42 710.743 125.303 711.629 125.07C712.563 124.837 713.263 124.463 713.729 123.95C714.196 123.39 714.429 122.597 714.429 121.57C714.429 120.777 714.219 120.17 713.799 119.75C713.426 119.33 712.679 118.98 711.559 118.7C710.486 118.373 708.899 118.047 706.799 117.72C704.186 117.347 702.016 116.81 700.289 116.11C698.609 115.41 697.373 114.383 696.579 113.03C695.786 111.63 695.389 109.74 695.389 107.36C695.389 104.467 696.019 102.203 697.279 100.57C698.539 98.9367 700.219 97.7933 702.319 97.14C704.419 96.44 706.706 96.09 709.179 96.09C710.813 96.09 712.493 96.1833 714.219 96.37C715.946 96.51 717.579 96.6967 719.119 96.93C720.659 97.1633 721.943 97.3967 722.969 97.63L722.689 104.7C721.523 104.513 720.169 104.35 718.629 104.21C717.089 104.023 715.549 103.883 714.009 103.79C712.516 103.697 711.256 103.65 710.229 103.65C709.156 103.65 708.199 103.767 707.359 104C706.519 104.187 705.866 104.513 705.399 104.98C704.979 105.447 704.769 106.147 704.769 107.08C704.769 107.733 704.956 108.27 705.329 108.69C705.703 109.11 706.403 109.483 707.429 109.81C708.503 110.09 710.043 110.37 712.049 110.65C714.943 111.07 717.253 111.653 718.979 112.4C720.706 113.147 721.943 114.22 722.689 115.62C723.483 117.02 723.879 118.91 723.879 121.29C723.879 124.09 723.319 126.33 722.199 128.01C721.079 129.69 719.446 130.903 717.299 131.65C715.153 132.397 712.539 132.77 709.459 132.77ZM742.246 132L754.426 84.19H771.296L783.406 132H773.746L771.086 122.34H754.356L751.836 132H742.246ZM755.896 114.57H769.686L764.296 92.03H761.356L755.896 114.57ZM788.398 132V82.51H797.708V132H788.398ZM577.96 202V154.19H587.62V174.35L593.64 174.21L603.16 154.19H613.24L601.97 177.85L614.01 202H603.65L593.71 182.89L587.62 183.03V202H577.96ZM618.347 202V152.51H627.657V168.12C628.45 167.84 629.384 167.56 630.457 167.28C631.577 166.953 632.72 166.673 633.887 166.44C635.1 166.207 636.197 166.09 637.177 166.09C639.65 166.09 641.68 166.417 643.267 167.07C644.9 167.677 646.184 168.68 647.117 170.08C648.05 171.433 648.704 173.23 649.077 175.47C649.497 177.71 649.707 180.417 649.707 183.59V202H640.327V184.29C640.327 181.863 640.187 179.927 639.907 178.48C639.627 176.987 639.09 175.913 638.297 175.26C637.55 174.607 636.384 174.28 634.797 174.28C633.957 174.28 633.094 174.35 632.207 174.49C631.32 174.63 630.457 174.817 629.617 175.05C628.824 175.283 628.17 175.493 627.657 175.68V202H618.347ZM666.208 202.77C662.568 202.77 659.815 201.86 657.948 200.04C656.128 198.173 655.218 195.373 655.218 191.64C655.218 189.027 655.685 186.997 656.618 185.55C657.552 184.057 658.928 182.983 660.748 182.33C662.615 181.63 664.878 181.21 667.538 181.07L676.078 180.3V178.2C676.078 176.52 675.658 175.353 674.818 174.7C673.978 174 672.742 173.65 671.108 173.65C669.802 173.65 668.285 173.697 666.558 173.79C664.878 173.883 663.198 174 661.518 174.14C659.885 174.28 658.462 174.42 657.248 174.56L656.968 167.98C658.182 167.7 659.628 167.42 661.308 167.14C663.035 166.813 664.832 166.557 666.698 166.37C668.565 166.183 670.292 166.09 671.878 166.09C674.865 166.09 677.362 166.463 679.368 167.21C681.375 167.957 682.892 169.193 683.918 170.92C684.945 172.6 685.458 174.887 685.458 177.78V193.81C685.552 194.463 685.902 194.977 686.508 195.35C687.115 195.677 687.815 195.91 688.608 196.05L688.398 202.49C687.652 202.49 686.905 202.49 686.158 202.49C685.458 202.537 684.782 202.537 684.128 202.49C683.475 202.49 682.892 202.443 682.378 202.35C681.305 202.21 680.372 201.93 679.578 201.51C678.832 201.09 678.225 200.647 677.758 200.18C677.012 200.507 676.008 200.88 674.748 201.3C673.488 201.72 672.112 202.07 670.618 202.35C669.172 202.63 667.702 202.77 666.208 202.77ZM668.448 195.84C669.335 195.84 670.268 195.747 671.248 195.56C672.228 195.373 673.138 195.163 673.978 194.93C674.865 194.65 675.565 194.393 676.078 194.16V186.11L668.938 186.74C667.398 186.88 666.278 187.347 665.578 188.14C664.925 188.887 664.598 189.96 664.598 191.36C664.598 192.76 664.902 193.857 665.508 194.65C666.162 195.443 667.142 195.84 668.448 195.84ZM693.679 202V166.86H702.989V202H693.679ZM693.679 161.26V153.28H703.059V161.26H693.679ZM710.769 202V166.86H720.079V169.1C720.779 168.633 721.666 168.19 722.739 167.77C723.812 167.303 724.932 166.907 726.099 166.58C727.312 166.253 728.479 166.09 729.599 166.09C731.746 166.09 733.496 166.393 734.849 167C736.202 167.56 737.322 168.4 738.209 169.52C739.049 169.007 740.099 168.493 741.359 167.98C742.619 167.467 743.996 167.023 745.489 166.65C746.982 166.277 748.429 166.09 749.829 166.09C752.396 166.09 754.496 166.44 756.129 167.14C757.809 167.793 759.116 168.843 760.049 170.29C760.982 171.69 761.636 173.51 762.009 175.75C762.382 177.943 762.569 180.603 762.569 183.73V202H753.259V184.57C753.259 182.143 753.119 180.183 752.839 178.69C752.606 177.15 752.092 176.03 751.299 175.33C750.552 174.63 749.409 174.28 747.869 174.28C747.029 174.28 746.142 174.373 745.209 174.56C744.276 174.7 743.412 174.91 742.619 175.19C741.872 175.47 741.266 175.727 740.799 175.96C741.032 176.94 741.196 178.2 741.289 179.74C741.429 181.28 741.499 182.89 741.499 184.57V202H732.189V184.71C732.189 182.237 732.049 180.23 731.769 178.69C731.536 177.15 731.022 176.03 730.229 175.33C729.436 174.63 728.292 174.28 726.799 174.28C725.959 174.28 725.096 174.373 724.209 174.56C723.369 174.7 722.576 174.91 721.829 175.19C721.129 175.47 720.546 175.727 720.079 175.96V202H710.769ZM779.138 202.77C775.498 202.77 772.745 201.86 770.878 200.04C769.058 198.173 768.148 195.373 768.148 191.64C768.148 189.027 768.615 186.997 769.548 185.55C770.481 184.057 771.858 182.983 773.678 182.33C775.545 181.63 777.808 181.21 780.468 181.07L789.008 180.3V178.2C789.008 176.52 788.588 175.353 787.748 174.7C786.908 174 785.671 173.65 784.038 173.65C782.731 173.65 781.215 173.697 779.488 173.79C777.808 173.883 776.128 174 774.448 174.14C772.815 174.28 771.391 174.42 770.178 174.56L769.898 167.98C771.111 167.7 772.558 167.42 774.238 167.14C775.965 166.813 777.761 166.557 779.628 166.37C781.495 166.183 783.221 166.09 784.808 166.09C787.795 166.09 790.291 166.463 792.298 167.21C794.305 167.957 795.821 169.193 796.848 170.92C797.875 172.6 798.388 174.887 798.388 177.78V193.81C798.481 194.463 798.831 194.977 799.438 195.35C800.045 195.677 800.745 195.91 801.538 196.05L801.328 202.49C800.581 202.49 799.835 202.49 799.088 202.49C798.388 202.537 797.711 202.537 797.058 202.49C796.405 202.49 795.821 202.443 795.308 202.35C794.235 202.21 793.301 201.93 792.508 201.51C791.761 201.09 791.155 200.647 790.688 200.18C789.941 200.507 788.938 200.88 787.678 201.3C786.418 201.72 785.041 202.07 783.548 202.35C782.101 202.63 780.631 202.77 779.138 202.77ZM781.378 195.84C782.265 195.84 783.198 195.747 784.178 195.56C785.158 195.373 786.068 195.163 786.908 194.93C787.795 194.65 788.495 194.393 789.008 194.16V186.11L781.868 186.74C780.328 186.88 779.208 187.347 778.508 188.14C777.855 188.887 777.528 189.96 777.528 191.36C777.528 192.76 777.831 193.857 778.438 194.65C779.091 195.443 780.071 195.84 781.378 195.84ZM806.609 202V152.51H815.919V168.12C816.712 167.84 817.645 167.56 818.719 167.28C819.839 166.953 820.982 166.673 822.149 166.44C823.362 166.207 824.459 166.09 825.439 166.09C827.912 166.09 829.942 166.417 831.529 167.07C833.162 167.677 834.445 168.68 835.379 170.08C836.312 171.433 836.965 173.23 837.339 175.47C837.759 177.71 837.969 180.417 837.969 183.59V202H828.589V184.29C828.589 181.863 828.449 179.927 828.169 178.48C827.889 176.987 827.352 175.913 826.559 175.26C825.812 174.607 824.645 174.28 823.059 174.28C822.219 174.28 821.355 174.35 820.469 174.49C819.582 174.63 818.719 174.817 817.879 175.05C817.085 175.283 816.432 175.493 815.919 175.68V202H806.609Z" fill="black"/>
<path d="M873.145 200.192C872.147 200.664 871.72 201.856 872.192 202.855L879.883 219.128C880.355 220.127 881.548 220.554 882.546 220.082C883.545 219.61 883.972 218.418 883.5 217.419L876.663 202.954L891.129 196.117C892.127 195.645 892.554 194.452 892.082 193.454C891.61 192.455 890.418 192.028 889.419 192.5L873.145 200.192ZM1170 308L1170.67 306.117L874.674 200.117L874 202L873.326 203.883L1169.33 309.883L1170 308Z" fill="black"/>
<path d="M872.707 139.474C871.864 140.188 871.76 141.45 872.474 142.293L884.11 156.027C884.824 156.869 886.086 156.974 886.928 156.26C887.771 155.546 887.875 154.284 887.161 153.441L876.819 141.233L889.027 130.89C889.869 130.176 889.974 128.914 889.26 128.072C888.546 127.229 887.284 127.125 886.441 127.839L872.707 139.474ZM1140 163L1140.16 161.007L874.165 139.007L874 141L873.835 142.993L1139.84 164.993L1140 163Z" fill="black"/>
</svg>
